<svg width="351" height="389" viewBox="0 0 351 389" fill="none" 
xmlns="http://www.w3.org/2000/svg">
<rect width="300" height="300" rx="50" fill="#343463"/>
<rect width="300" height="300" rx="50" fill="#128100"/>
<path d="M50.4999 0C50.4999 17.5 61.3788 15.6977 61.9999 27.5C62.4999 37 42.9999 44.5 51.4999 56" stroke="white" stroke-width="5"/>
<path d="M82.3599 123.138C71.4645 122.104 47.8714 116.984 36.6162 92.1917L86.4077 69.5874C97.0008 92.9213 87.7699 114.232 82.3599 123.138Z" fill="#32329C"/>
<circle cx="61.1979" cy="80.1979" r="27.3411" transform="rotate(-24.417 61.1979 80.1979)" fill="#32329C"/>
<circle cx="61.1978" cy="80.198" r="12.1516" transform="rotate(-24.417 61.1978 80.198)" fill="white"/>
<path d="M104.66 116.12C113.274 116.227 117.844 115.666 131.134 118.463C153.039 123.075 187.632 129.017 219.734 185.917C243.017 227.186 270.847 236.725 282.91 233.162C294.972 229.599 294.929 219.008 286.07 214.842C281.007 212.462 275.502 214.016 276.609 224.82C272.432 226.92 261.281 216.839 261.557 207.389C261.833 197.94 263.91 195.193 268.831 191.391C277.204 184.922 289.42 187.673 300 194.99L300 250C300 277.614 277.614 300 250 300L194 300C161 290 138 270.5 121 254.5C115 257.5 114.49 254.884 103.5 264.5C95.5003 271.5 84.226 263 85.0002 251C86.0002 235.5 92.5002 229.5 98.0002 225.5C87.0002 207 85.1129 199.96 80.9707 180.629C77.343 163.699 74.4318 139.473 78.075 128.205C81.7182 116.938 93.8918 115.986 104.66 116.12Z" fill="white"/>
<circle cx="122.681" cy="146.68" r="6.1402" transform="rotate(43.4761 122.681 146.68)" fill="#128100"/>
<path d="M93 220C96.5 226.333 105.4 244 119 256" stroke="#128100" stroke-width="5" stroke-linecap="round"/>
<path d="M86.0077 217.43C93.4442 218.55 137.5 222.5 172 180.5" stroke="#128100" stroke-width="5" stroke-linecap="round"/>
</svg>
